<?xml version="1.0" encoding="UTF-8"?>
<!DOCTYPE svg PUBLIC "-//W3C//DTD SVG 1.1//EN" "http://www.w3.org/Graphics/SVG/1.1/DTD/svg11.dtd">
<!-- Creator: CorelDRAW 2020 (64-Bit) -->
<svg xmlns="http://www.w3.org/2000/svg" xml:space="preserve" width="3206px" height="741px" version="1.1" shape-rendering="geometricPrecision" text-rendering="geometricPrecision" image-rendering="optimizeQuality" fill-rule="evenodd" clip-rule="evenodd"
viewBox="0 0 3206 741.06"
 xmlns:xlink="http://www.w3.org/1999/xlink"
 xmlns:xodm="http://www.corel.com/coreldraw/odm/2003">
 <defs>
   <clipPath id="id0">
    <path d="M-0.12 0.5l3205.99 0 0 741.06 -3205.99 0 0 -741.06z"/>
   </clipPath>
 </defs>
 <g id="Capa_x0020_1">
  <metadata id="CorelCorpID_0Corel-Layer"/>
  <g>
  </g>
  <g clip-path="url(#id0)">
   <g>
    <path id="Descripcion" fill-rule="nonzero" d="M1051.36 402.24l35.85 0 0 171.4 28.38 0 0 51.6 -64.23 0 0 -223zm138.83 223l0 -20.19 -0.48 0c-4.16,8.67 -8.2,15.05 -12.12,19.16 -3.91,4.16 -8.47,6.21 -13.76,6.21 -10.34,0 -18.57,-7.46 -24.75,-22.4 -6.13,-14.89 -9.2,-35.18 -9.2,-60.78 0,-24.64 3.11,-44.25 9.32,-58.79 6.26,-14.6 14.45,-21.89 24.63,-21.89 5.41,0 10.05,1.88 13.8,5.76 3.8,3.82 7.76,9.97 11.83,18.47l0.49 0 0 -19.22 34.43 0 0 153.67 -34.19 0zm0 -77.66c0,-25.54 -4.4,-38.26 -13.24,-38.26 -8.92,0 -13.36,12.72 -13.36,38.26 0,26.51 4.6,39.74 13.84,39.74 8.52,0 12.76,-13.23 12.76,-39.74zm50.02 -76.01l33.58 0 13.61 83.19 0.48 0 13.61 -83.19 34.07 0 -33.83 153.67 -27.94 0 -33.58 -153.67zm162.97 153.67l0 -20.19 -0.49 0c-4.15,8.67 -8.19,15.05 -12.11,19.16 -3.91,4.16 -8.48,6.21 -13.76,6.21 -10.34,0 -18.57,-7.46 -24.75,-22.4 -6.14,-14.89 -9.2,-35.18 -9.2,-60.78 0,-24.64 3.1,-44.25 9.32,-58.79 6.26,-14.6 14.45,-21.89 24.63,-21.89 5.41,0 10.05,1.88 13.8,5.76 3.8,3.82 7.75,9.97 11.83,18.47l0.49 0 0 -19.22 34.43 0 0 153.67 -34.19 0zm0 -77.66c0,-25.54 -4.4,-38.26 -13.24,-38.26 -8.93,0 -13.37,12.72 -13.37,38.26 0,26.51 4.61,39.74 13.85,39.74 8.52,0 12.76,-13.23 12.76,-39.74zm94.74 -76.01l0 20.87 0.61 0c8.03,-17.27 17.84,-25.88 29.43,-25.88 7.55,0 13.56,3.53 18.04,10.66 4.44,7.13 6.66,16.76 6.66,28.91l0 119.11 -34.39 0 0 -94.71c0,-5.24 -0.89,-9.52 -2.62,-12.89 -1.74,-3.3 -3.96,-5.01 -6.75,-5.01 -7.3,0 -10.98,6.55 -10.98,19.55l0 93.06 -34.31 0 0 -153.67 34.31 0zm134.23 -81.7l34.2 0 0 235.37 -34.44 0 0 -20.19 -0.49 0c-7.63,16.88 -16.26,25.37 -25.87,25.37 -10.1,0 -18.25,-7.46 -24.42,-22.4 -6.18,-14.89 -9.29,-34.84 -9.29,-59.81 0,-24.81 3.15,-44.65 9.44,-59.47 6.34,-14.77 14.66,-22.18 24.95,-22.18 9.41,0 18.05,7.64 25.92,22.86l0 -99.55zm0 157.37c0,-25.32 -4.32,-37.92 -13,-37.92 -8.92,0 -13.36,13.4 -13.36,40.25 0,11.92 1.21,21.1 3.59,27.66 2.42,6.5 5.74,9.75 10.01,9.75 3.92,0 7.03,-3.42 9.33,-10.38 2.3,-6.9 3.43,-16.71 3.43,-29.36zm111.54 31.07l28.99 0c-5.53,34.5 -19.34,51.77 -41.42,51.77 -13.81,0 -24.71,-7.41 -32.74,-22.23 -8.08,-14.77 -12.07,-35.24 -12.07,-61.3 0,-24.29 3.99,-43.73 12.07,-58.38 8.03,-14.66 18.73,-21.96 32.05,-21.96 8.03,0 15.75,3.54 23.17,10.61 7.39,7.07 12.8,16.48 16.19,28.17 3.39,11.68 5.29,30.1 5.69,55.25l-57.36 0c0.48,22.86 4.96,34.26 13.48,34.26 2.91,0 5.53,-1.48 7.79,-4.5 2.3,-3.02 3.68,-6.9 4.16,-11.69zm-24.95 -44.47l24.95 0c-0.24,-10.78 -1.29,-18.76 -3.19,-23.95 -1.9,-5.19 -4.88,-7.76 -9,-7.76 -4.56,0 -7.83,2.51 -9.81,7.53 -1.98,5.02 -2.95,13.06 -2.95,24.18zm109.89 -62.27l0 25.72 0.44 0c8.2,-20.07 16.84,-30.11 25.92,-30.11 1.33,0 3.19,0.35 5.57,1.03l0 47.61c-4.2,-1.03 -8.07,-1.48 -11.59,-1.48 -12.63,0 -18.93,11.52 -18.93,34.55l0 76.35 -34.31 0 0 -153.67 32.9 0zm51.43 0l34.39 0 0 153.67 -34.39 0 0 -153.67zm-0.81 -21.89l16.55 -49.95 37.26 0 -32.65 49.95 -21.16 0zm116.47 175.56l0 -20.19 -0.49 0c-4.15,8.67 -8.19,15.05 -12.11,19.16 -3.91,4.16 -8.48,6.21 -13.76,6.21 -10.34,0 -18.57,-7.46 -24.75,-22.4 -6.14,-14.89 -9.2,-35.18 -9.2,-60.78 0,-24.64 3.1,-44.25 9.32,-58.79 6.26,-14.6 14.45,-21.89 24.63,-21.89 5.41,0 10.05,1.88 13.8,5.76 3.8,3.82 7.75,9.97 11.83,18.47l0.49 0 0 -19.22 34.43 0 0 153.67 -34.19 0zm0 -77.66c0,-25.54 -4.4,-38.26 -13.24,-38.26 -8.92,0 -13.37,12.72 -13.37,38.26 0,26.51 4.61,39.74 13.85,39.74 8.52,0 12.76,-13.23 12.76,-39.74zm277.01 -145.34l85.51 0 0 50.92 -24.71 0 0 172.08 -36.33 0 0 -172.08 -24.47 0 0 -50.92zm103.95 23.21c0,-7.13 1.78,-13.17 5.33,-18.19 3.56,-5.02 7.79,-7.53 12.76,-7.53 5.05,0 9.37,2.51 12.92,7.53 3.55,5.02 5.33,11.06 5.33,18.19 0,7.01 -1.78,13.05 -5.33,18.13 -3.55,5.07 -7.87,7.58 -12.92,7.58 -4.88,0 -9.12,-2.51 -12.68,-7.58 -3.59,-5.08 -5.41,-11.12 -5.41,-18.13zm0.97 46.12l34.4 0 0 153.67 -34.4 0 0 -153.67zm95.8 0l0 20.87 0.6 0c8.04,-17.27 17.85,-25.88 29.43,-25.88 7.55,0 13.57,3.53 18.05,10.66 4.44,7.13 6.66,16.76 6.66,28.91l0 119.11 -34.4 0 0 -94.71c0,-5.24 -0.88,-9.52 -2.62,-12.89 -1.73,-3.3 -3.95,-5.01 -6.74,-5.01 -7.31,0 -10.98,6.55 -10.98,19.55l0 93.06 -34.31 0 0 -153.67 34.31 0zm84.33 -40.93l34.39 0 0 40.93 13.37 0 0 40.43 -13.61 0 0 113.24 -34.15 0 0 -113.58 -13.04 0 0 -40.09 13.04 0 0 -40.93zm106.21 35.57c15.7,0 27.61,7.36 35.85,22.13 8.19,14.76 12.27,35.29 12.27,61.58 0,25.71 -4.24,45.61 -12.76,59.69 -8.51,14.09 -20.3,21.16 -35.36,21.16 -14.45,0 -25.88,-7.19 -34.35,-21.56 -8.48,-14.36 -12.72,-34.15 -12.72,-59.29 0,-26.29 4.04,-46.82 12.11,-61.58 8.08,-14.77 19.74,-22.13 34.96,-22.13zm0.24 121.11c4.48,0 7.88,-2.97 10.1,-8.84 2.26,-5.93 3.39,-16.02 3.39,-30.27 0,-14.14 -1.13,-24.01 -3.31,-29.71 -2.22,-5.7 -5.53,-8.55 -9.93,-8.55 -4.36,0 -7.67,2.79 -9.94,8.26 -2.3,5.54 -3.43,15.63 -3.43,30.34 0,25.83 4.36,38.77 13.12,38.77zm101.01 -115.75l0 25.72 0.44 0c8.2,-20.07 16.83,-30.11 25.92,-30.11 1.33,0 3.19,0.35 5.57,1.03l0 47.61c-4.2,-1.03 -8.07,-1.48 -11.59,-1.48 -12.63,0 -18.93,11.52 -18.93,34.55l0 76.35 -34.31 0 0 -153.67 32.9 0zm101.57 106.74l28.98 0c-5.53,34.5 -19.34,51.77 -41.42,51.77 -13.8,0 -24.7,-7.41 -32.74,-22.23 -8.07,-14.77 -12.07,-35.24 -12.07,-61.3 0,-24.29 4,-43.73 12.07,-58.38 8.04,-14.66 18.73,-21.96 32.06,-21.96 8.03,0 15.74,3.54 23.17,10.61 7.38,7.07 12.79,16.48 16.19,28.17 3.39,11.68 5.28,30.1 5.69,55.25l-57.37 0c0.49,22.86 4.97,34.26 13.49,34.26 2.9,0 5.53,-1.48 7.79,-4.5 2.3,-3.02 3.67,-6.9 4.16,-11.69zm-24.95 -44.47l24.95 0c-0.25,-10.78 -1.3,-18.76 -3.19,-23.95 -1.9,-5.19 -4.89,-7.76 -9.01,-7.76 -4.56,0 -7.83,2.51 -9.81,7.53 -1.97,5.02 -2.94,13.06 -2.94,24.18zm109.88 -62.27l0 25.72 0.45 0c8.19,-20.07 16.83,-30.11 25.91,-30.11 1.34,0 3.19,0.35 5.58,1.03l0 47.61c-4.2,-1.03 -8.08,-1.48 -11.59,-1.48 -12.63,0 -18.93,11.52 -18.93,34.55l0 76.35 -34.32 0 0 -153.67 32.9 0zm51.43 0l34.4 0 0 153.67 -34.4 0 0 -153.67zm-0.8 -21.89l16.55 -49.95 37.26 0 -32.66 49.95 -21.15 0zm116.46 175.56l0 -20.19 -0.48 0c-4.16,8.67 -8.2,15.05 -12.11,19.16 -3.92,4.16 -8.48,6.21 -13.77,6.21 -10.33,0 -18.57,-7.46 -24.75,-22.4 -6.13,-14.89 -9.2,-35.18 -9.2,-60.78 0,-24.64 3.11,-44.25 9.33,-58.79 6.25,-14.6 14.45,-21.89 24.62,-21.89 5.41,0 10.05,1.88 13.81,5.76 3.79,3.82 7.75,9.97 11.82,18.47l0.49 0 0 -19.22 34.44 0 0 153.67 -34.2 0zm0 -77.66c0,-25.54 -4.4,-38.26 -13.24,-38.26 -8.92,0 -13.36,12.72 -13.36,38.26 0,26.51 4.6,39.74 13.85,39.74 8.51,0 12.75,-13.23 12.75,-39.74zm-1014.03 -76.01l33.91 0 8.63 39.92c3.03,14.02 5.62,27.76 7.84,41.22l0.56 0c1.82,-12.77 3.31,-21.95 4.52,-27.54l11.47 -53.6 34.39 0 -46.34 216.96 -34.31 0 13.96 -65.29 -34.63 -151.67z"/>
    <path  fill-rule="nonzero" d="M1053.49 79.75l59.31 0 0 212.86 46.96 0 0 64.08 -106.27 0 0 -276.94zm329.1 276.94l-61.65 0 -9.96 -46.24 -62.58 0 -10.42 46.24 -60.45 0 69.26 -276.94 66.53 0 69.27 276.94zm-82.96 -96.01c-8.89,-41.22 -15.5,-80.44 -19.97,-117.69l-0.74 0c-4.74,38.31 -11.29,77.54 -19.77,117.69l40.48 0zm74.41 -180.93l61.78 0 32.33 122.36c6.15,24.22 10.29,44.9 12.49,62.03l0.8 0c1.94,-15.08 4.14,-27.4 6.48,-37.1l36 -147.29 63.39 0 -78.48 276.94 -54.97 0 -79.82 -276.94zm413.06 276.94l-61.66 0 -9.95 -46.24 -62.59 0 -10.42 46.24 -60.45 0 69.27 -276.94 66.53 0 69.27 276.94zm-82.96 -96.01c-8.89,-41.22 -15.5,-80.44 -19.98,-117.69l-0.73 0c-4.74,38.31 -11.29,77.54 -19.77,117.69l40.48 0zm112.95 -180.93l69.06 0c27.92,0 49.96,7.58 66.13,22.8 16.23,15.23 24.31,35.91 24.31,62.04 0,13.45 -3.07,26.41 -9.22,38.87 -6.14,12.53 -15.09,21.95 -26.78,28.32l47.36 124.91 -62.66 0 -47.96 -126.11 -0.93 0 0 126.11 -59.31 0 0 -276.94zm59.31 53.54l0 65.71c26.18,-0.5 39.34,-10.27 39.34,-29.25 0,-12.81 -3.07,-22.02 -9.15,-27.54 -6.01,-5.52 -16.1,-8.5 -30.19,-8.92zm125.44 -53.54l141.47 0 0 63.24 -40.88 0 0 213.7 -60.11 0 0 -213.7 -40.48 0 0 -63.24z"/>
    <path id="Logo"  d="M753.55 195.53l0.48 307.17c-12.88,-0.1 -133.16,-82.85 -147.3,-91.46l-148.27 -94.74c-13.14,4.51 -56.1,35.93 -72.43,46.18 -24.3,15.24 -49.85,32.42 -73.86,47.61 -11.7,7.39 -138.2,92.64 -148.17,92.45l-0.61 -305.79c12.22,-0.22 26.83,16.14 36.19,23.69 13.4,10.81 24.39,17.73 37.67,27.66 38.16,28.54 76.17,73.82 115.12,24.67 9.85,-12.42 11.18,-41.52 2.63,-55.13 -6.42,-10.22 -204.49,-159.15 -222.32,-166.94 -39.33,-17.2 -69.6,18.54 -69.55,53.91 0.1,65.79 -1,495.68 2.98,510.96 8.39,32.27 43.44,47.08 83.7,21.3l273.51 -178c43.25,-29.55 25.33,-30.63 119.47,31.74 25.39,16.82 51.21,33.12 77.24,50.41l156.22 102.33c32.84,19.52 69.13,0.83 74.96,-33.41l1.08 -514.28c-1.93,-37.28 -41.59,-62.99 -74.23,-41.64 -31.59,20.66 -207.03,146.17 -218,168.01 -16.75,33.33 5.31,66.08 40.58,72.99 17.65,3.46 64.88,-36.02 77.47,-45.38 12.77,-9.49 65.26,-53 75.44,-54.31z"/>
   </g>
  </g>
 </g>
</svg>
