<?xml version="1.0" encoding="UTF-8"?>
<!DOCTYPE svg PUBLIC "-//W3C//DTD SVG 1.1//EN" "http://www.w3.org/Graphics/SVG/1.1/DTD/svg11.dtd">
<!-- Creator: CorelDRAW 2020 (64-Bit) -->
<svg xmlns="http://www.w3.org/2000/svg" xml:space="preserve" width="3206px" height="741px" version="1.1" shape-rendering="geometricPrecision" text-rendering="geometricPrecision" image-rendering="optimizeQuality" fill-rule="evenodd" clip-rule="evenodd"
viewBox="0 0 3206 741.06"
 xmlns:xlink="http://www.w3.org/1999/xlink"
 xmlns:xodm="http://www.corel.com/coreldraw/odm/2003">
 <defs>
   <clipPath id="id0">
    <path d="M-0.12 33.5l3205.99 0 0 741.06 -3205.99 0 0 -741.06z"/>
   </clipPath>
 </defs>
 <g id="Capa_x0020_1">
  <metadata id="CorelCorpID_0Corel-Layer"/>
  <g>
  </g>
  <g clip-path="url(#id0)">
   <g>
    <path id="Descripcion"  fill-rule="nonzero" d="M1051.36 435.24l35.85 0 0 171.4 28.38 0 0 51.6 -64.23 0 0 -223zm138.83 223l0 -20.19 -0.48 0c-4.16,8.67 -8.2,15.06 -12.12,19.16 -3.91,4.16 -8.47,6.22 -13.76,6.22 -10.34,0 -18.57,-7.47 -24.75,-22.41 -6.13,-14.88 -9.2,-35.18 -9.2,-60.78 0,-24.63 3.11,-44.24 9.32,-58.78 6.26,-14.6 14.45,-21.9 24.63,-21.9 5.41,0 10.05,1.88 13.8,5.76 3.8,3.82 7.76,9.98 11.83,18.47l0.49 0 0 -19.21 34.43 0 0 153.66 -34.19 0zm0 -77.66c0,-25.54 -4.4,-38.26 -13.24,-38.26 -8.92,0 -13.36,12.72 -13.36,38.26 0,26.52 4.6,39.74 13.84,39.74 8.52,0 12.76,-13.22 12.76,-39.74zm50.02 -76l33.58 0 13.61 83.19 0.48 0 13.61 -83.19 34.07 0 -33.83 153.66 -27.94 0 -33.58 -153.66zm162.97 153.66l0 -20.19 -0.49 0c-4.15,8.67 -8.19,15.06 -12.11,19.16 -3.91,4.16 -8.48,6.22 -13.76,6.22 -10.34,0 -18.57,-7.47 -24.75,-22.41 -6.14,-14.88 -9.2,-35.18 -9.2,-60.78 0,-24.63 3.1,-44.24 9.32,-58.78 6.26,-14.6 14.45,-21.9 24.63,-21.9 5.41,0 10.05,1.88 13.8,5.76 3.8,3.82 7.75,9.98 11.83,18.47l0.49 0 0 -19.21 34.43 0 0 153.66 -34.19 0zm0 -77.66c0,-25.54 -4.4,-38.26 -13.24,-38.26 -8.93,0 -13.37,12.72 -13.37,38.26 0,26.52 4.61,39.74 13.85,39.74 8.52,0 12.76,-13.22 12.76,-39.74zm94.74 -76l0 20.87 0.61 0c8.03,-17.28 17.84,-25.89 29.43,-25.89 7.55,0 13.56,3.53 18.04,10.66 4.44,7.13 6.66,16.77 6.66,28.91l0 119.11 -34.39 0 0 -94.71c0,-5.24 -0.89,-9.52 -2.62,-12.88 -1.74,-3.31 -3.96,-5.02 -6.75,-5.02 -7.3,0 -10.98,6.56 -10.98,19.56l0 93.05 -34.31 0 0 -153.66 34.31 0zm134.23 -81.71l34.2 0 0 235.37 -34.44 0 0 -20.19 -0.49 0c-7.63,16.88 -16.26,25.38 -25.87,25.38 -10.1,0 -18.25,-7.47 -24.42,-22.41 -6.18,-14.88 -9.29,-34.84 -9.29,-59.81 0,-24.8 3.15,-44.64 9.44,-59.47 6.34,-14.77 14.66,-22.18 24.95,-22.18 9.41,0 18.05,7.64 25.92,22.86l0 -99.55zm0 157.37c0,-25.32 -4.32,-37.92 -13,-37.92 -8.92,0 -13.36,13.4 -13.36,40.26 0,11.92 1.21,21.09 3.59,27.65 2.42,6.5 5.74,9.75 10.01,9.75 3.92,0 7.03,-3.42 9.33,-10.38 2.3,-6.89 3.43,-16.7 3.43,-29.36zm111.54 31.07l28.99 0c-5.53,34.5 -19.34,51.78 -41.42,51.78 -13.81,0 -24.71,-7.42 -32.74,-22.24 -8.08,-14.77 -12.07,-35.24 -12.07,-61.3 0,-24.28 3.99,-43.73 12.07,-58.38 8.03,-14.65 18.73,-21.95 32.05,-21.95 8.03,0 15.75,3.53 23.17,10.6 7.39,7.07 12.8,16.48 16.19,28.17 3.39,11.69 5.29,30.11 5.69,55.25l-57.36 0c0.48,22.86 4.96,34.27 13.48,34.27 2.91,0 5.53,-1.49 7.79,-4.51 2.3,-3.02 3.68,-6.9 4.16,-11.69zm-24.95 -44.47l24.95 0c-0.24,-10.77 -1.29,-18.76 -3.19,-23.94 -1.9,-5.2 -4.88,-7.76 -9,-7.76 -4.56,0 -7.83,2.51 -9.81,7.53 -1.98,5.01 -2.95,13.05 -2.95,24.17zm109.89 -62.26l0 25.71 0.44 0c8.2,-20.07 16.84,-30.1 25.92,-30.1 1.33,0 3.19,0.34 5.57,1.02l0 47.61c-4.2,-1.02 -8.07,-1.48 -11.59,-1.48 -12.63,0 -18.93,11.52 -18.93,34.55l0 76.35 -34.31 0 0 -153.66 32.9 0zm51.43 0l34.39 0 0 153.66 -34.39 0 0 -153.66zm-0.81 -21.9l16.55 -49.94 37.26 0 -32.65 49.94 -21.16 0zm116.47 175.56l0 -20.19 -0.49 0c-4.15,8.67 -8.19,15.06 -12.11,19.16 -3.91,4.16 -8.48,6.22 -13.76,6.22 -10.34,0 -18.57,-7.47 -24.75,-22.41 -6.14,-14.88 -9.2,-35.18 -9.2,-60.78 0,-24.63 3.1,-44.24 9.32,-58.78 6.26,-14.6 14.45,-21.9 24.63,-21.9 5.41,0 10.05,1.88 13.8,5.76 3.8,3.82 7.75,9.98 11.83,18.47l0.49 0 0 -19.21 34.43 0 0 153.66 -34.19 0zm0 -77.66c0,-25.54 -4.4,-38.26 -13.24,-38.26 -8.92,0 -13.37,12.72 -13.37,38.26 0,26.52 4.61,39.74 13.85,39.74 8.52,0 12.76,-13.22 12.76,-39.74zm277.01 -145.34l85.51 0 0 50.92 -24.71 0 0 172.08 -36.33 0 0 -172.08 -24.47 0 0 -50.92zm103.95 23.21c0,-7.13 1.78,-13.17 5.33,-18.19 3.56,-5.02 7.79,-7.52 12.76,-7.52 5.05,0 9.37,2.5 12.92,7.52 3.55,5.02 5.33,11.06 5.33,18.19 0,7.01 -1.78,13.06 -5.33,18.13 -3.55,5.08 -7.87,7.59 -12.92,7.59 -4.88,0 -9.12,-2.51 -12.68,-7.59 -3.59,-5.07 -5.41,-11.12 -5.41,-18.13zm0.97 46.13l34.4 0 0 153.66 -34.4 0 0 -153.66zm95.8 0l0 20.87 0.6 0c8.04,-17.28 17.85,-25.89 29.43,-25.89 7.55,0 13.57,3.53 18.05,10.66 4.44,7.13 6.66,16.77 6.66,28.91l0 119.11 -34.4 0 0 -94.71c0,-5.24 -0.88,-9.52 -2.62,-12.88 -1.73,-3.31 -3.95,-5.02 -6.74,-5.02 -7.31,0 -10.98,6.56 -10.98,19.56l0 93.05 -34.31 0 0 -153.66 34.31 0zm84.33 -40.94l34.39 0 0 40.94 13.37 0 0 40.42 -13.61 0 0 113.24 -34.15 0 0 -113.58 -13.04 0 0 -40.08 13.04 0 0 -40.94zm106.21 35.58c15.7,0 27.61,7.35 35.85,22.12 8.19,14.77 12.27,35.29 12.27,61.58 0,25.72 -4.24,45.61 -12.76,59.7 -8.51,14.08 -20.3,21.15 -35.36,21.15 -14.45,0 -25.88,-7.18 -34.35,-21.55 -8.48,-14.37 -12.72,-34.16 -12.72,-59.3 0,-26.29 4.04,-46.81 12.11,-61.58 8.08,-14.77 19.74,-22.12 34.96,-22.12zm0.24 121.1c4.48,0 7.88,-2.96 10.1,-8.83 2.26,-5.93 3.39,-16.03 3.39,-30.28 0,-14.14 -1.13,-24.01 -3.31,-29.71 -2.22,-5.7 -5.53,-8.55 -9.93,-8.55 -4.36,0 -7.67,2.8 -9.94,8.27 -2.3,5.53 -3.43,15.62 -3.43,30.33 0,25.83 4.36,38.77 13.12,38.77zm101.01 -115.74l0 25.71 0.44 0c8.2,-20.07 16.83,-30.1 25.92,-30.1 1.33,0 3.19,0.34 5.57,1.02l0 47.61c-4.2,-1.02 -8.07,-1.48 -11.59,-1.48 -12.63,0 -18.93,11.52 -18.93,34.55l0 76.35 -34.31 0 0 -153.66 32.9 0zm101.57 106.73l28.98 0c-5.53,34.5 -19.34,51.78 -41.42,51.78 -13.8,0 -24.7,-7.42 -32.74,-22.24 -8.07,-14.77 -12.07,-35.24 -12.07,-61.3 0,-24.28 4,-43.73 12.07,-58.38 8.04,-14.65 18.73,-21.95 32.06,-21.95 8.03,0 15.74,3.53 23.17,10.6 7.38,7.07 12.79,16.48 16.19,28.17 3.39,11.69 5.28,30.11 5.69,55.25l-57.37 0c0.49,22.86 4.97,34.27 13.49,34.27 2.9,0 5.53,-1.49 7.79,-4.51 2.3,-3.02 3.67,-6.9 4.16,-11.69zm-24.95 -44.47l24.95 0c-0.25,-10.77 -1.3,-18.76 -3.19,-23.94 -1.9,-5.2 -4.89,-7.76 -9.01,-7.76 -4.56,0 -7.83,2.51 -9.81,7.53 -1.97,5.01 -2.94,13.05 -2.94,24.17zm109.88 -62.26l0 25.71 0.45 0c8.19,-20.07 16.83,-30.1 25.91,-30.1 1.34,0 3.19,0.34 5.58,1.02l0 47.61c-4.2,-1.02 -8.08,-1.48 -11.59,-1.48 -12.63,0 -18.93,11.52 -18.93,34.55l0 76.35 -34.32 0 0 -153.66 32.9 0zm51.43 0l34.4 0 0 153.66 -34.4 0 0 -153.66zm-0.8 -21.9l16.55 -49.94 37.26 0 -32.66 49.94 -21.15 0zm116.46 175.56l0 -20.19 -0.48 0c-4.16,8.67 -8.2,15.06 -12.11,19.16 -3.92,4.16 -8.48,6.22 -13.77,6.22 -10.33,0 -18.57,-7.47 -24.75,-22.41 -6.13,-14.88 -9.2,-35.18 -9.2,-60.78 0,-24.63 3.11,-44.24 9.33,-58.78 6.25,-14.6 14.45,-21.9 24.62,-21.9 5.41,0 10.05,1.88 13.81,5.76 3.79,3.82 7.75,9.98 11.82,18.47l0.49 0 0 -19.21 34.44 0 0 153.66 -34.2 0zm0 -77.66c0,-25.54 -4.4,-38.26 -13.24,-38.26 -8.92,0 -13.36,12.72 -13.36,38.26 0,26.52 4.6,39.74 13.85,39.74 8.51,0 12.75,-13.22 12.75,-39.74zm-1014.03 -76l33.91 0 8.63 39.91c3.03,14.03 5.62,27.77 7.84,41.22l0.56 0c1.82,-12.77 3.31,-21.95 4.52,-27.54l11.47 -53.59 34.39 0 -46.34 216.95 -34.31 0 13.96 -65.29 -34.63 -151.66z"/>
    <g id="Name">
     <path  d="M1114.86 179.38c10.1,2.54 38.41,48.78 46.14,59.92 6.3,9.09 38.87,56.09 44.77,59.91l43.75 -60.96c8.3,-11.35 35.08,-54.73 45.26,-58.37 -2.04,25.53 -2.15,150.33 -0.96,179.39l58.48 -0.25c2.33,-18.31 0.97,-121.49 0.94,-148.2 -0.03,-24.76 -0.07,-49.52 -0.08,-74.28 -0.01,-15.96 1.94,-60.98 -1,-73.51 -11.91,-0.35 -23.95,-0.32 -35.88,-0.49 -17.26,-0.24 -18.32,-2.5 -26.01,9.89 -8.92,14.37 -80.06,126.77 -84.5,129.81 -5.98,-2.33 -4.23,-0.67 -8.02,-7l-39 -62.4c-5.76,-9.46 -40.64,-65.43 -45.37,-69.43 -0.02,0 -50.16,-2.4 -53.87,1.27 -3.37,4.98 -2.38,265 -1.26,293.81 9.07,2.42 45.59,1.39 56.99,0.26l-0.38 -179.37z"/>
     <path  d="M2073.58 193.04c4.86,1.89 3.76,-1.28 3.6,17.78 -0.28,32.16 -1.35,127.78 0.55,146.98l51.11 -0.29c4.79,-31.61 -3.56,-141.13 1.64,-164.17 8.49,-3.21 82.75,-3.07 93.68,-0.97l0.62 165.31c4.52,2.05 48.15,3.09 51.35,-0.57 6.03,-11.99 -1.51,-136.72 2.09,-164.43l45.57 -0.23 0.38 -47.58 -45.08 -0.26c-4.69,-12.5 -1.08,-27.61 8.35,-31.5 15.68,-6.47 17.56,6.71 29.71,6.02 1.83,-3.09 13.8,-32.81 14.02,-36.94 -4.95,-15.01 -78.74,-40.09 -102.49,15.58 -7.3,17.11 -4.07,27.22 -5.64,45.2 -9.52,2.89 -78.74,2.25 -91.5,0.9 -1.55,-14.15 0.01,-26.57 10.79,-31.11 19.67,-8.28 24.27,21.74 32.17,-3.93 2.98,-9.7 12.02,-20.27 10.07,-26.64 -4.57,-15.02 -77.89,-40.88 -102.67,15.51 -12.79,29.1 3.86,45.89 -13.7,47.29 -1.74,0.14 -5.29,-0.13 -7.21,-0.19 -5.42,-0.17 -9.4,-0.17 -14.95,0.26l0.48 47.96 27.06 0.02z"/>
     <path  d="M1885.2 234.68c0.45,-11.96 11.4,-22.54 17.8,-27.78 19.89,-16.33 47.91,-17.05 65.95,-0.17 6.04,5.66 14.87,16.07 16.01,27.96l-99.76 -0.01zm145.84 40.4c8.75,-31.02 -11.36,-104.81 -66.52,-121.9 -120.71,-37.38 -181.33,132.68 -84.16,192.91 50.69,31.42 128.67,6.59 139.28,-20.41 -5.95,-6.59 -9.81,-9.72 -15.68,-16.28 -23.74,-26.52 -14.13,-14.35 -41.57,-1.53 -26.74,12.49 -65.27,2.22 -73.92,-32.35l142.57 -0.44z"/>
     <path  d="M1620.44 306.19c3.35,12.17 7.88,13.1 14.83,20.49 17.25,18.33 41.67,29.22 66.99,32.37 43.05,5.35 75.27,-19.02 90.4,-43.2 20.33,-32.48 15.46,-74.69 15.49,-117.71 0.02,-43.06 1.98,-90.8 -0.06,-134.15l-56.8 0.47c-2.11,15.75 -0.38,154.06 -0.33,182.6 0.05,24.14 -7.33,54.91 -36.02,56.95 -40.98,2.92 -46.17,-26.48 -58.06,-34.06l-4.9 4.8c-2.01,2.35 -1.71,2.4 -4.1,4.97l-27.44 26.47z"/>
     <path  d="M1447.22 359.67c0.43,-28.97 -3.42,-89.62 1.22,-114.35 2.8,-14.88 13.17,-28.09 22.97,-35.17 15,-10.82 26.41,-8.13 45.18,-12.79l-0.36 -46.99c-8.99,-0.3 -32.63,4.53 -40.07,8.39 -10.97,5.68 -14.15,10.55 -21.1,16.91 -4.87,4.46 -2.05,3.46 -8.21,4.57l-0.64 -24.94 -51.91 0.28 0.62 203.67 52.3 0.42z"/>
    </g>
    <path id="Logo" d="M753.55 228.53l0.48 307.17c-12.88,-0.09 -133.16,-82.85 -147.3,-91.46l-148.27 -94.74c-13.14,4.51 -56.1,35.94 -72.43,46.18 -24.3,15.24 -49.85,32.42 -73.86,47.61 -11.7,7.39 -138.2,92.65 -148.17,92.45l-0.61 -305.78c12.22,-0.22 26.83,16.14 36.19,23.68 13.4,10.81 24.39,17.74 37.67,27.67 38.16,28.54 76.17,73.82 115.12,24.67 9.85,-12.43 11.18,-41.52 2.63,-55.14 -6.42,-10.21 -204.49,-159.14 -222.32,-166.94 -39.33,-17.2 -69.6,18.54 -69.55,53.91 0.1,65.8 -1,495.69 2.98,510.96 8.39,32.28 43.44,47.08 83.7,21.3l273.51 -177.99c43.25,-29.56 25.33,-30.63 119.47,31.73 25.39,16.82 51.21,33.12 77.24,50.41l156.22 102.33c32.84,19.52 69.13,0.83 74.96,-33.41l1.08 -514.28c-1.93,-37.27 -41.59,-62.98 -74.23,-41.63 -31.59,20.65 -207.03,146.17 -218,168 -16.75,33.33 5.31,66.08 40.58,72.99 17.65,3.46 64.88,-36.02 77.47,-45.37 12.77,-9.49 65.26,-53.01 75.44,-54.32z"/>
   </g>
  </g>
 </g>
</svg>
